<?xml version="1.0" standalone="no"?><!DOCTYPE svg PUBLIC "-//W3C//DTD SVG 1.1//EN" "http://www.w3.org/Graphics/SVG/1.1/DTD/svg11.dtd"><svg t="1717177113247" class="icon" viewBox="0 0 1204 1024" version="1.1" xmlns="http://www.w3.org/2000/svg" p-id="5736" xmlns:xlink="http://www.w3.org/1999/xlink" width="150.5" height="128"><path d="M382.293333 1015.808H294.229333c-26.624 0-53.930667-21.162667-60.074666-47.104L154.282667 638.293333c-2.048-9.557333 0-19.797333 6.144-27.306666s15.018667-12.288 25.258666-12.288h119.466667c15.018667 0 27.989333 10.24 31.402667 24.576L419.84 969.386667c3.413333 12.288 0.682667 24.576-6.144 33.450666-7.509333 8.192-18.432 12.970667-31.402667 12.970667z m-86.016-64.170667h53.248L279.210667 662.186667h-53.248l70.314666 289.450666c-0.682667 0-0.682667 0 0 0z" fill="#568BAF" p-id="5737"></path><path d="M468.992 260.096c-30.037333 9.557333-62.122667 15.701333-63.488 15.701333-11.605333 2.048-22.528 15.701333-22.528 27.306667v288.768c0 11.605333 10.922667 24.576 22.528 27.306667 1.365333 0 33.450667 6.826667 63.488 15.701333 221.184 68.266667 344.746667 169.984 397.312 222.549333V37.546667c-52.565333 52.565333-176.128 154.282667-397.312 222.549333z" fill="#9EC6E5" p-id="5738"></path><path d="M866.304 888.832c-8.192 0-16.384-3.413333-22.528-9.557333-51.882667-51.882667-170.666667-148.821333-383.658667-214.357334-28.672-8.874667-59.392-15.018667-60.074666-15.018666-26.624-5.461333-48.469333-31.402667-48.469334-58.709334V303.104c0-27.306667 21.845333-53.248 48.469334-58.709333 0.682667 0 31.402667-6.144 60.074666-15.018667C673.109333 163.84 791.893333 66.901333 843.776 15.018667c8.874667-8.874667 23.210667-11.605333 34.816-6.826667 12.288 4.778667 19.797333 16.384 19.797333 29.354667v819.2c0 12.970667-7.509333 24.576-19.797333 29.354666-4.096 2.048-8.192 2.730667-12.288 2.730667z m-450.56-301.056c9.557333 2.048 36.864 7.509333 62.805333 15.701333 170.666667 52.565333 285.354667 124.928 355.669334 181.589334V109.226667c-70.314667 56.661333-185.002667 129.024-355.669334 181.589333-26.624 8.192-53.248 13.653333-62.805333 15.701333v281.258667z m-245.76-18.432H88.746667c-45.056 0-81.92-36.864-81.92-81.92v-61.44c0-45.056 36.864-81.92 81.92-81.92h81.237333c45.056 0 81.92 36.864 81.92 81.92v61.44c0 45.056-36.864 81.92-81.92 81.92zM88.746667 376.149333c-27.306667 0-49.834667 22.528-49.834667 49.834667v61.44c0 27.306667 22.528 49.834667 49.834667 49.834667h81.237333c27.306667 0 49.834667-22.528 49.834667-49.834667v-61.44c0-27.306667-22.528-49.834667-49.834667-49.834667H88.746667z" fill="#568BAF" p-id="5739"></path><path d="M394.581333 327.68V246.442667H118.101333v384.341333h276.48V327.68z" fill="#9EC6E5" p-id="5740"></path><path d="M394.581333 662.186667H118.101333c-17.749333 0-32.085333-14.336-32.085333-32.085334V245.76c0-17.749333 14.336-32.085333 32.085333-32.085333h276.48c17.749333 0 32.085333 14.336 32.085334 32.085333v384.341333c-0.682667 17.749333-15.018667 32.085333-32.085334 32.085334zM150.186667 598.698667h212.309333V278.528H150.186667v320.170667z m824.661333 53.930666c-6.144 0-12.970667-2.048-18.432-5.461333-14.336-10.24-18.432-30.037333-8.192-44.373333 113.322667-165.205333 6.144-297.642667 2.048-303.786667-10.922667-13.653333-9.557333-33.450667 4.096-45.056 13.653333-11.605333 33.450667-9.557333 45.056 4.096 1.365333 2.048 143.36 174.762667 2.048 380.928-6.144 8.874667-16.384 13.653333-26.624 13.653333z" fill="#568BAF" p-id="5741"></path><path d="M1098.410667 720.896c-6.144 0-11.605333-1.365333-16.384-4.778667-15.018667-9.557333-19.797333-28.672-10.24-44.373333 108.544-176.810667 47.104-363.861333 0.682666-460.117333-13.653333-27.306667-2.730667-41.642667 8.192-49.152 11.605333-7.509333 30.72-7.509333 43.690667 8.874666 3.413333 4.096 5.461333 8.192 6.144 13.653334 89.429333 185.685333 88.064 370.005333-4.096 520.192-6.826667 10.24-17.066667 15.701333-27.989333 15.701333z m-0.682667-528.384l-24.576 19.114667 24.576-19.114667z" fill="#568BAF" p-id="5742"></path><path d="M686.08 641.024c-3.413333 0-6.826667-0.682667-8.874667-2.730667-77.141333-54.613333-189.781333-68.949333-190.464-68.949333-8.874667-1.365333-15.018667-8.874667-13.653333-17.749333 1.365333-8.874667 8.874667-15.018667 17.749333-13.653334 4.778667 0.682667 121.514667 15.701333 205.482667 74.410667 7.509333 4.778667 8.874667 15.018667 4.096 22.528-4.096 3.413333-8.874667 6.144-14.336 6.144zM774.826667 695.637333c-3.413333 0-6.144-0.682667-8.874667-2.730666l-31.402667-21.845334c-7.509333-4.778667-8.874667-15.018667-4.096-22.528 4.778667-7.509333 15.018667-8.874667 22.528-4.096l31.402667 21.845334c7.509333 4.778667 8.874667 15.018667 4.096 22.528-3.413333 4.096-8.192 6.826667-13.653333 6.826666z" fill="#FFFFFF" p-id="5743"></path></svg>