<?xml version="1.0" standalone="no"?><!DOCTYPE svg PUBLIC "-//W3C//DTD SVG 1.1//EN" "http://www.w3.org/Graphics/SVG/1.1/DTD/svg11.dtd"><svg t="1716885140819" class="icon" viewBox="0 0 1024 1024" version="1.1" xmlns="http://www.w3.org/2000/svg" p-id="18064" xmlns:xlink="http://www.w3.org/1999/xlink" width="128" height="128"><path d="M256.08569 39.666075a11.748151 11.748151 0 0 1-3.136267-11.413958 11.799565 11.799565 0 0 1 8.397656-8.367665 11.846695 11.846695 0 0 1 11.448235 3.127699l49.837523 49.661857c129.092552-62.091247 288.806561-39.781757 395.88954 66.932754 107.087264 106.718795 129.478159 265.8801 67.168401 394.527062l47.048301 46.889774c3.02487 2.956318 4.224536 7.317958 3.136268 11.409674a11.799565 11.799565 0 0 1-8.397657 8.37195 11.846695 11.846695 0 0 1-11.452518-3.127699l-61.290042-61.075816a19.743063 19.743063 0 0 0-19.121808-5.278527 19.665941 19.665941 0 0 0-14.031799 13.984669 19.58882 19.58882 0 0 0 5.304234 19.053256l55.707314 55.527364a19.58882 19.58882 0 0 1 5.372787 19.091816 19.665941 19.665941 0 0 1-14.07036 14.018945 19.743063 19.743063 0 0 1-19.151799-5.355648l-41.859749-41.705507-13.860419-13.809004a31.594042 31.594042 0 0 0-30.518627-8.281975 31.461222 31.461222 0 0 0-22.365189 22.288067 31.332686 31.332686 0 0 0 8.307682 30.40723l47.361072 47.19826a31.332686 31.332686 0 0 1 8.311966 30.411514 31.461222 31.461222 0 0 1-22.365188 22.283783 31.594042 31.594042 0 0 1-30.518628-8.277691l-33.127899-33.007933c-129.088268 62.091247-288.802276 39.781757-395.885256-66.932753C121.136201 521.503063 98.745305 362.341757 161.055063 233.694795L125.150795 197.901925a31.332686 31.332686 0 0 1 0.137105-44.280502 31.598326 31.598326 0 0 1 44.434744-0.13282l36.212753 36.088502a31.594042 31.594042 0 0 0 30.445791 8.127732 31.461222 31.461222 0 0 0 22.288067-22.210946 31.332686 31.332686 0 0 0-8.157724-30.334393l-6.898075-6.872368-37.678059-37.545239a19.584536 19.584536 0 0 1-5.167129-18.997556 19.665941 19.665941 0 0 1 13.967531-13.916117 19.747347 19.747347 0 0 1 19.05754 5.149991L279.693389 118.719732l12.605055 12.562209a19.743063 19.743063 0 0 0 19.126092 5.274243 19.665941 19.665941 0 0 0 14.027514-13.984669 19.58882 19.58882 0 0 0-5.29995-19.053256L256.08569 39.666075z" fill="#F0F7FF" p-id="18065"></path><path d="M359.308318 723.175364c2.497874 0 3.813222 0.925456 3.941757 2.776368l0.012854 0.321339c0 2.065138-1.319632 3.097707-3.954611 3.097707h-162.169038c-2.49359 0-3.813222-0.929741-3.941757-2.784937l-0.012854-0.31277c0-2.065138 1.319632-3.097707 3.954611-3.097707h162.169038z m356.763314 0c2.485021 0 3.796084 0.925456 3.928904 2.776368l0.008569 0.321339c0 2.065138-1.311063 3.097707-3.941758 3.097707H452.2481c-2.489305 0-3.796084-0.929741-3.928903-2.784937l-0.012854-0.31277c0-2.065138 1.311063-3.097707 3.941757-3.097707h263.823532z m-221.925222-41.302761c2.485021 0 3.791799 0.929741 3.920335 2.784937l0.012853 0.31277c0 2.065138-1.311063 3.097707-3.933188 3.097707H313.266879c-2.485021 0-3.791799-0.925456-3.920335-2.776368l-0.008569-0.321339c0-2.065138 1.311063-3.097707 3.928904-3.097707h180.879531z m172.139113 0c2.49359 0 3.800368 0.929741 3.933188 2.784937l0.012854 0.31277c0 2.065138-1.315347 3.097707-3.946042 3.097707h-114.482343c-2.489305 0-3.800368-0.925456-3.933188-2.776368l-0.012854-0.321339c0-2.065138 1.315347-3.097707 3.950326-3.097707h114.478059z m-141.243448 0c2.630695 0 4.01031 0.934025 4.138846 2.79779l0.012853 0.299917c0 2.065138-1.3839 3.097707-4.151699 3.097707h-8.294828c-2.62641 0-4.006025-0.929741-4.138845-2.793507l-0.008569-0.299916c0-2.069423 1.3839-3.101992 4.147414-3.101991h8.294828z m193.103264-43.359331c2.485021 0 3.796084 0.925456 3.928904 2.776368l0.008569 0.317055c0 2.065138-1.311063 3.097707-3.933189 3.097707H190.896736c-2.485021 0-3.791799-0.925456-3.924619-2.780653l-0.008569-0.317054c0-2.065138 1.311063-3.097707 3.933188-3.097708h527.252887z m47.725255 0c2.472167 0 3.774661 0.925456 3.907481 2.776368l0.008569 0.317055c0 2.065138-1.306778 3.097707-3.91605 3.097707h-27.42092c-2.476452 0-3.778946-0.925456-3.907482-2.780653l-0.012853-0.317054c0-2.065138 1.306778-3.097707 3.91605-3.097708h27.420921z" fill="#C8C8CC" p-id="18066"></path><path d="M791.95046 330.850544a18.834745 18.834745 0 1 0 37.66949-0.008569 18.834745 18.834745 0 0 0-37.66949 0.008569z" fill="#FFFFFF" p-id="18067"></path><path d="M108.351197 344.852351a28.414929 28.414929 0 0 1 28.556318 0 28.731983 28.731983 0 0 1 14.267447 24.867348c0 15.85272-12.78072 28.710561-28.547749 28.71056s-28.552033-12.853556-28.552033-28.71056a28.740552 28.740552 0 0 1 14.276017-24.867348z" fill="#C8C8CC" p-id="18068"></path><path d="M111.457473 350.267983a22.472301 22.472301 0 0 0-11.161172 19.451716c0 12.403682 9.995782 22.459448 22.330912 22.459447 12.330845 0 22.330912-10.055766 22.330913-22.459447a22.485155 22.485155 0 0 0-11.165457-19.451716 22.228084 22.228084 0 0 0-22.335196 0z" fill="#FFFFFF" p-id="18069"></path><path d="M931.882845 403.044686a19.023264 19.023264 0 0 1 19.117523 0 19.23749 19.23749 0 0 1 9.554477 16.645356c0 10.617038-8.556184 19.220351-19.113238 19.220351-10.557054 0-19.113238-8.603314-19.113239-19.220351A19.23749 19.23749 0 0 1 931.882845 403.044686z" fill="#C8C8CC" p-id="18070"></path><path d="M933.960837 406.669389a15.042946 15.042946 0 0 0-7.467916 13.024937c0 8.299113 6.692418 15.030092 14.948686 15.030092 8.256268 0 14.948686-6.726695 14.948686-15.034376a15.051515 15.051515 0 0 0-7.476485-13.020653 14.880134 14.880134 0 0 0-14.952971 0z" fill="#FFFFFF" p-id="18071"></path><path d="M698.950695 19.490276c2.480736 0 4.485891 2.009439 4.485891 4.490176v14.584502h14.588786a4.485891 4.485891 0 0 1 0 8.976067h-14.588786v14.588787a4.490176 4.490176 0 1 1-8.976067 0v-14.588787h-14.584502a4.485891 4.485891 0 0 1 0-8.976067h14.584502V23.980452c0-2.480736 2.013724-4.490176 4.490176-4.490176zM97.32713 472.381054c2.866343 0 5.184268 2.322209 5.184267 5.192837v21.739649h21.743934c2.866343 0 5.184268 2.322209 5.184267 5.188552v3.084854a5.192837 5.192837 0 0 1-5.184267 5.192836H102.515682v21.739649c0 2.870628-2.322209 5.192837-5.184268 5.192837h-3.089138c-2.866343 0-5.188552-2.326494-5.188552-5.192837v-21.739649H67.309791c-2.866343 0-5.188552-2.326494-5.188553-5.192836v-3.084854c0-2.866343 2.322209-5.188552 5.184268-5.188552h21.739649v-21.739649c0-2.870628 2.322209-5.192837 5.188552-5.192837h3.093423z" fill="#C8C8CC" p-id="18072"></path><path d="M156.209272 50.762979a5.61272 5.61272 0 0 1-5.604151 5.621289 5.61272 5.61272 0 0 1-5.608435-5.625573 5.61272 5.61272 0 0 1 5.608435-5.625574 5.61272 5.61272 0 0 1 5.604151 5.625574m21.024134 0a5.61272 5.61272 0 0 1-9.5759 3.976033 5.61272 5.61272 0 0 1-1.636686-3.976033 5.61272 5.61272 0 0 1 9.5759-3.976034c1.049707 1.053992 1.640971 2.485021 1.636686 3.976034m21.019849 0a5.61272 5.61272 0 0 1-9.575899 3.976033 5.61272 5.61272 0 0 1-1.636687-3.976033 5.61272 5.61272 0 0 1 9.5759-3.971749c1.049707 1.053992 1.640971 2.485021 1.636686 3.971749" fill="#FFFFFF" p-id="18073"></path><path d="M850.241339 356.099213l28.654862 236.663967h-8.958929l-52.601038-232.649372z" fill="#B0D4FF" p-id="18074"></path><path d="M127.991431 297.885456a18.461992 18.461992 0 0 1-13.033506-5.411347 18.372017 18.372017 0 0 1-5.372787-13.016368V22.70795A18.423431 18.423431 0 0 1 127.991431 4.284519h379.436987a18.461992 18.461992 0 0 1 13.024938 5.411347A18.372017 18.372017 0 0 1 525.838996 22.70795v256.749791a18.372017 18.372017 0 0 1-5.377071 13.016368 18.461992 18.461992 0 0 1-13.029222 5.411347h-379.436988z" fill="#D8EAFF" p-id="18075"></path><path d="M525.834711 58.984971H109.585138v-38.860586a14.314577 14.314577 0 0 1 4.190259-10.137172 14.387414 14.387414 0 0 1 10.15431-4.215966h387.556151c3.813222 0.004285 7.463632 1.521004 10.154309 4.215966 2.690678 2.690678 4.198828 6.341088 4.194544 10.141456v38.860586z" fill="#B0D4FF" p-id="18076"></path><path d="M143.557088 35.955682A5.61272 5.61272 0 0 1 137.961506 41.576971a5.61272 5.61272 0 0 1-5.60415-5.621289 5.61272 5.61272 0 0 1 5.60415-5.629858 5.61272 5.61272 0 0 1 5.604151 5.629858M164.589791 35.955682a5.61272 5.61272 0 0 1-9.5759 3.971749 5.61272 5.61272 0 0 1-1.64097-3.971749 5.61272 5.61272 0 0 1 5.60415-5.629858 5.61272 5.61272 0 0 1 5.608435 5.629858M183.968669 39.931715a5.61272 5.61272 0 0 1-7.934928-0.004284 5.61272 5.61272 0 0 1-1.640971-3.971749 5.61272 5.61272 0 0 1 9.580184-3.980318c1.049707 1.058276 1.640971 2.485021 1.636686 3.980318 0 1.486728-0.586979 2.917757-1.640971 3.971749zM456.686862 384.766929v17.026678l-4.314511-2.497875v-17.026678M452.372351 382.26477v-15.595649l4.318795-2.49359v20.591398M443.233473 376.969105l2.412184-1.396754v2.793507l4.318795 2.502159v-12.793573l-4.318795 2.497874-2.412184 1.396753-4.314511 2.497875M438.918962 374.466946v17.026677l4.314511 2.510728v-0.004284l2.412184 1.396753 4.318795 2.506444v-12.673607l-4.318795-2.506444v7.669289l-2.412184-1.392469v-12.030928m15.869858 7.797824v17.026678l4.31451-2.497875v-17.026678m0-0.004284v-15.595649l-4.31451-2.49359v20.591398m13.453389-7.797824l-2.412184-1.396754v2.793507l-4.314511 2.502159v-12.793573l4.314511 2.497874 2.412184 1.396753 4.318795 2.497875" fill="#FFFFFF" p-id="18077"></path><path d="M476.875515 374.466946v17.026677l-4.318795 2.510728v-0.004284l-2.412184 1.396753-4.314511 2.506444v-17.026678l4.314511-2.510728v12.030929l2.412184-1.396754v-12.030928M502.342695 308.862393s93.466778 83.830895 64.224937 136.23913c-18.817607 33.719163-56.469958 9.961506-56.469958 9.961506l-2.892051-74.036485-24.310359-71.401506 19.451715-0.762645z" fill="#FFFFFF" p-id="18078"></path><path d="M513.182527 453.18641c4.4559 2.433607 18.680502 9.305975 31.979649 5.895498 7.733556-1.983732 14.006092-7.210845 18.646226-15.531381 26.144134-46.855498-53.055197-122.571515-62.639666-131.47046l-13.907548 0.548418 23.084988 67.81108 2.836351 72.75113z m24.216101 13.183464c-15.120067 0-28.324954-8.200569-28.989055-8.616167l-1.413891-0.895464-2.934895-75.249005-25.527164-74.987648 24.961607-0.981155 0.951163 0.856904c0.239933 0.214226 23.856201 21.504 43.543565 48.980619 26.93677 37.596653 34.117623 68.265238 21.336904 91.170276-5.527029 9.905808-13.144904 16.161205-22.639398 18.590528a37.412418 37.412418 0 0 1-9.288836 1.131112z" fill="#BEC9EE" p-id="18079"></path><path d="M510.753205 454.673138c2.433607 1.443883 19.207498 10.869824 35.000234 6.833808 8.423364-2.159397 15.231464-7.784971 20.227214-16.739615 27.999331-50.167431-59.057808-130.814929-63.882176-135.219415l-18.273473 0.715515 24.04472 70.638862 2.883481 73.770845z m26.761105 9.181724c-14.55451 0-27.622293-8.119163-27.78082-8.221992l-0.299917-0.179949-2.896335-74.302126-24.56743-72.164151 20.61282-0.814058 0.209941 0.188519c0.227079 0.205657 23.650544 21.319766 43.175096 48.569305 25.955615 36.225607 33.282142 66.82564 21.186946 88.492452-5.184268 9.293121-12.275146 15.14149-21.075548 17.395146a34.618912 34.618912 0 0 1-8.560469 1.036854z" fill="#BEC9EE" p-id="18080"></path><path d="M513.842343 452.770812c4.648703 2.49359 18.406293 8.920368 31.127029 5.664134 7.557891-1.936603 13.701891-7.056603 18.256335-15.214327 7.583598-13.590494 10.364251-38.749188-19.464569-81.405857-17.232335-24.644552-37.772318-44.319063-42.845188-49.049172l-12.725021 0.505573 22.823632 67.044151 2.827782 72.455498z m23.671967 14.254594c-15.638494 0-29.340385-8.624736-29.47749-8.710427l-1.696669-1.07113-2.947749-75.510359-25.788519-75.750293 26.135565-1.028285 1.15682 1.036854c0.985439 0.886895 24.138979 21.881038 43.637824 49.092016 26.722544 37.292452 34.117623 69.070728 21.379749 91.89436-5.625573 10.077188-13.384837 16.439699-23.054996 18.916151a37.703766 37.703766 0 0 1-9.340251 1.131113z" fill="#C8C8CC" p-id="18081"></path><path d="M532.171515 416.523782l39.580385-7.429355-3.311933-17.797891-39.58467 7.43364z" fill="#B0D4FF" p-id="18082"></path><path d="M576.194946 413.07046l0.342761-0.094259c2.365054-0.599833 3.796084-3.003448 3.200536-5.368502l-4.845791-19.271766a4.413054 4.413054 0 0 0-5.355649-3.209105l-0.35133 0.085691a4.425908 4.425908 0 0 0-3.191967 5.377071l4.841507 19.271766c0.599833 2.369339 2.994879 3.804653 5.355648 3.209104" fill="#B0D4FF" p-id="18083"></path><path d="M534.266644 443.109222c-8.933222-82.001406-35.561506-141.868987-35.561506-141.868988l-55.844418 7.12944-55.844419-7.12944s-26.628285 59.867582-35.561506 141.877557c-7.38651 67.888201 10.754142 116.628887 10.754142 116.628887s-5.895498 2.018008-8.063464 10.441372c-1.345339 5.227113-0.672669 13.933255 5.377071 17.412285 7.163715 4.121707 60.180351 2.206527 69.520602 0.492719 2.729238-0.505573 5.081439-2.232234 5.385641-12.682175l3.680401-78.728034c0.368469 0.029992 1.139682 0.059983 2.060854 0.09426v0.154242c0.44559-0.021423 1.499582-0.042845 2.690678-0.081406 1.186812 0.034276 2.245088 0.059983 2.690677 0.085691v-0.158527c0.916887-0.029992 1.700954-0.055699 2.05657-0.09426l3.684686 78.732318c0.299916 10.445657 2.656402 12.172318 5.389924 12.677891 9.340251 1.722377 62.352603 3.628987 69.516318-0.492719 6.049741-3.479029 6.718126-12.185172 5.377072-17.412285-2.163682-8.423364-8.063464-10.441372-8.063465-10.441372s18.144937-48.740686 10.754142-116.637456z" fill="#FFFFFF" p-id="18084"></path><path d="M391.420787 532.205791c-17.566527-0.715515-30.154444-1.653824-39.550394-2.742092 3.620418 18.753339 7.92636 29.764552 7.92636 29.764552s-6.032603 1.96231-8.251983 10.132887c-1.371046 5.068586-0.685523 13.517657 5.505607 16.893858 7.322243 3.997456 61.551397 2.142259 71.10159 0.479866 2.797791-0.49272 5.201406-2.167967 5.51846-12.305138l2.22795-45.244519c-5.269958 1.405322-25.788519 3.770377-44.47759 3.020586m101.701623 0c17.566527-0.715515 30.163013-1.653824 39.554678-2.742092-3.620418 18.753339-7.92636 29.764552-7.92636 29.764552s6.028318 1.96231 8.247699 10.132887c1.371046 5.068586 0.685523 13.517657-5.497038 16.893858-7.330812 3.997456-61.559967 2.142259-71.114443 0.479866-2.789222-0.49272-5.201406-2.167967-5.509892-12.305138l-2.232234-45.244519c5.269958 1.405322 25.784234 3.770377 44.481875 3.020586" fill="#B0D4FF" p-id="18085"></path><path d="M452.033874 492.136971l3.843214 81.590092c0.244218 8.299113 1.640971 8.547615 2.656402 8.736134 10.531347 1.928033 61.217205 3.239096 67.189824-0.175666 4.301657-2.463598 4.511598-8.774695 3.628987-12.180887-0.904033-3.590427-3.072-6.431063-5.856937-7.669288l-3.560435-1.319632 1.572418-4.314511c0.171381-0.471297 17.472268-47.780954 10.377105-112.520033-7.703565-70.248971-29.079029-124.452418-33.890544-135.964921l-53.599331 6.790963-53.59933-6.790963c-4.80723 11.512502-26.186979 65.71595-33.890544 135.964921-7.095163 64.739079 10.205724 112.048736 10.381389 112.520033l1.640971 4.387348-3.663264 1.251079c-0.141389 0.059983-4.263096 1.645255-5.826945 7.66072-0.878326 3.410477-0.672669 9.725858 3.633272 12.185171 5.972619 3.414762 56.654192 2.103699 67.181255 0.171381 1.024-0.184234 2.420753-0.432736 2.656401-8.63759l3.843214-81.680067 3.170544 0.291348c0.329908 0.034276 1.041138 0.059983 1.885188 0.08569l2.412184 0.077121h0.115682l0.53128 0.012854 0.822628 0.025707 1.293925-0.111398c0.848335-0.025707 1.559565-0.055699 1.885188-0.08569l3.170544-0.299916z m44.053423 100.759029c-16.932418 0-35.44154-1.088268-40.544402-2.026577-5.329941-0.972586-7.733556-5.852653-8.042041-16.336871l-3.461892-73.518058-1.42246-0.034276-0.411314-0.012854-0.26564 0.012854-1.431029 0.034276-3.47046 73.608033c-0.304201 10.385674-2.707816 15.282879-8.033473 16.246896-9.254561 1.696669-62.472569 3.894628-70.664569-0.788352-7.219414-4.130276-9.010343-14.481674-7.030896-22.12954 1.173958-4.618711 3.616134-8.526192 6.868084-11.011213-4.083146-12.699314-15.964117-56.041506-9.665874-113.548318 8.838962-80.681774 35.385841-140.712167 35.655765-141.312l1.006862-2.257941 57.099783 7.249405 57.095497-7.249405 1.011147 2.257941c0.269925 0.599833 26.812519 60.630226 35.655766 141.312 6.298243 57.506812-5.587013 100.840435-9.670159 113.544033 2.356485 1.816636 5.355649 5.16713 6.872368 11.011214 1.979448 7.647866 0.17995 18.003548-7.03518 22.133824-3.667548 2.09513-16.371146 2.810644-30.115883 2.810644v0.004285z" fill="#C8C8CC" p-id="18086"></path><path d="M441.566795 493.683682c-8.920368 0-17.035247-1.705238-23.072134-4.477322 5.33851 3.911766 13.684753 6.426778 23.080703 6.426778 9.383096 0 17.737908-2.519297 23.076418-6.426778-6.041172 2.772084-14.151766 4.477322-23.076418 4.477322M355.525088 464.853155c4.044586 2.587849 10.368536 6.19113 13.380552 7.305104 2.270795 0.835481 4.528736 1.525289 6.718126 2.043716 2.189389 0.522711 4.473038 0.08569 6.272535-1.199665 1.825205-1.306778 2.862059-3.269088 2.862059-5.398494v-6.538176c0-2.746377 1.461021-5.312803 3.911766-6.863799a9.635883 9.635883 0 0 1 8.316251-0.925456c6.066879 2.125121 13.44482 3.96318 21.923882 5.454192l-0.771213 3.727532c-8.714711-1.533858-16.324017-3.427615-22.61369-5.642712a5.179983 5.179983 0 0 0-4.524452 0.505574c-1.341054 0.84405-2.137975 2.249372-2.125122 3.744669v6.538176c0 3.311933-1.628117 6.371079-4.455899 8.397657a12.073774 12.073774 0 0 1-9.820117 1.876619c-2.356485-0.556987-4.785808-1.298209-7.223699-2.197958-2.917757-1.079699-8.054895-3.911766-12.176603-6.443916m182.640469-7.399364c-3.851782 3.286226-9.455933 7.429356-15.317155 9.597322-2.433607 0.899749-4.858644 1.636686-7.219414 2.197958a12.060921 12.060921 0 0 1-9.807264-1.880904c-2.819213-2.009439-4.464469-5.111431-4.451615-8.393372v-6.542461a4.395916 4.395916 0 0 0-2.116552-3.740384 5.158561 5.158561 0 0 0-4.520167-0.505574c-6.285389 2.210812-66.024435 5.16713-74.722009 6.696703l-0.771213-3.727531c8.470494-1.486728 67.969607-4.378778 74.036485-6.512469a9.635883 9.635883 0 0 1 8.307682 0.925456c2.433607 1.550996 3.898912 4.121707 3.898912 6.863799v6.542461c0 2.129406 1.036854 4.091715 2.857774 5.398493 1.799498 1.285356 4.074577 1.718092 6.268252 1.199666a58.440837 58.440837 0 0 0 6.709556-2.043716c6.255397-2.31364 12.399397-7.317958 15.908418-10.50564M500.663163 305.486192L442.162343 311.283146 383.657238 305.486192s-1.28964 3.51759-3.316217 9.80298c14.773021 3.834644 48.492184 12.082343 75.964519 15.150058 20.030126 2.232234 39.374728 1.996586 52.686728 1.345339-4.725824-16.43113-8.329105-26.298377-8.329105-26.298377" fill="#C8C8CC" p-id="18087"></path><path d="M425.756921 71.050176s11.581054-23.526293 16.996686-30.325825c4.378778-5.488469 10.475649-11.028351 14.824435-14.713037a9.194577 9.194577 0 0 1 10.99836-0.694092c5.347079 3.509021 5.561305 11.212586 0.497004 15.124351-3.573289 2.75923-7.146577 6.118293-9.323113 9.764419-5.664134 9.473071-7.557891 20.844184-7.557891 20.844184h-26.435481z" fill="#FFFFFF" p-id="18088"></path><path d="M481.519933 125.909155c8.423364-7.694996 0.059983-30.664301-18.671933-51.311398-18.727632-20.651381-40.737205-31.148452-49.152-23.466309-8.423364 7.690711-0.055699 30.660017 18.671933 51.307113 18.731916 20.651381 40.737205 31.157021 49.152 23.470594" fill="#FFFFFF" p-id="18089"></path><path d="M482.184033 48.406494c7.66072 8.449071-2.80636 30.531481-23.380619 49.33195-20.574259 18.7919-43.470728 27.180987-51.127163 18.7362-7.669289-8.449071 2.802075-30.531481 23.376335-49.331949 20.578544-18.7919 43.470728-27.180987 51.131447-18.736201" fill="#FFFFFF" p-id="18090"></path><path d="M598.628686 211.929439c0 60.240335-69.18641 109.070996-154.52974 109.070996-85.334762 0-154.516887-48.834946-154.516887-109.070996 0-60.240335 69.182126-145.866444 154.521171-145.866443s154.521172 85.630393 154.521172 145.866443" fill="#FFFFFF" p-id="18091"></path><path d="M444.098946 69.237824c-38.217908 0-76.22159 17.532251-106.98872 49.37908-27.369506 28.320669-44.361908 64.079264-44.361908 93.31682 0 58.389423 67.892485 105.896167 151.350628 105.896167 83.462427 0 151.363481-47.506745 151.363481-105.900452 0-29.237556-17.000971-64.996151-44.366193-93.31682-30.771414-31.842544-68.766527-49.374795-106.993004-49.374795m0 254.93744c-86.945741 0-157.683146-50.351665-157.683146-112.245825 0-30.827113 17.686494-68.269523 46.152837-97.729874 31.966795-33.089339 71.577172-51.311397 111.530309-51.311398 39.948854 0 79.563515 18.222059 111.526025 51.311398 28.470628 29.460351 46.161406 66.907046 46.161406 97.729874 0 61.894159-70.737406 112.24154-157.687431 112.24154" fill="#C8C8CC" p-id="18092"></path><path d="M444.098946 296.15451c-59.92328 0-108.509724-33.406393-108.509724-74.619179 0-41.217071 41.859749-91.208837 109.062427-91.208837 65.000435 0 107.961305 49.99605 107.961305 91.208837s-48.577874 74.61918-108.509724 74.619179z" fill="#FFFFFF" p-id="18093"></path><path d="M444.690209 124.782326c-71.697138 0-116.358962 53.33369-116.358962 97.309992 0 43.967732 51.829824 79.60636 115.771983 79.60636 63.937874 0 115.767699-35.638628 115.767699-79.60636 0-43.972017-45.831498-97.309992-115.18072-97.309992m0 8.097741c29.691715 0 57.425406 10.642745 78.093925 29.987347 18.179213 17.000971 29.023331 39.139079 29.02333 59.224904 0 18.509121-10.796987 36.135632-30.402945 49.619013-20.535699 14.121774-47.990895 21.906745-77.301289 21.906744-29.310393 0-56.769874-7.784971-77.309858-21.906744-19.601674-13.483381-30.398661-31.105607-30.398661-49.619013 0-20.257205 10.741289-42.391029 28.727699-59.224904 20.672803-19.344603 48.929205-29.991632 79.563515-29.991632" fill="#C8C8CC" p-id="18094"></path><path d="M347.247397 253.10795c17.138075 24.978745 54.083481 42.262494 96.915816 42.262494 52.721004 0 96.517356-26.204117 105.43344-60.698779-10.124318 13.881841-31.191297 31.842544-74.974795 45.287364-56.354276 17.309456-103.308318-8.676151-127.378745-26.851079" fill="#D6E9FF" p-id="18095"></path><path d="M538.666845 415.426946s-12.009506 10.608469-6.910929 15.252887c5.094293 4.640134 13.933255 0.257071 13.933256 0.257071" fill="#FFFFFF" p-id="18096"></path><path d="M537.878494 433.494762c-2.283649 0-4.657272-0.569841-6.581021-2.317925a4.413054 4.413054 0 0 1-1.473875-3.436184c0.042845-5.377071 8.054895-12.519364 8.397657-12.823565l0.886896 1.015431c-0.077121 0.068552-7.904937 7.043749-7.943498 11.816703a3.093423 3.093423 0 0 0 1.041138 2.429322c4.691548 4.27595 13.102059 0.192803 13.187749 0.149958l0.595548 1.212519c-0.244218 0.119967-4.018879 1.953741-8.110594 1.953741" fill="#BEC9EE" p-id="18097"></path><path d="M537.878494 436.665305c-3.487598 0-6.413925-1.058276-8.706143-3.140552a7.56646 7.56646 0 0 1-2.510728-5.805523c0.042845-6.538176 7.900653-13.796151 9.468787-15.184335l2.373623-2.095129 5.107147 5.822661-2.459314 2.090845c-2.750661 2.437891-6.812385 7.232268-6.825238 9.417372 2.527866 2.356485 7.977774 0.526996 9.683012-0.295631l2.827783-1.353908 3.384769 6.863799-2.840636 1.401037c-0.771213 0.381322-4.862929 2.283649-9.503062 2.283649" fill="#C8C8CC" p-id="18098"></path><path d="M501.614326 203.814561l-35.141623-9.503063a2.116552 2.116552 0 0 1 1.096837-4.087431l35.137339 9.511632a2.116552 2.116552 0 0 1-1.092553 4.083146z" fill="#474747" p-id="18099"></path><path d="M482.955247 326.111866s31.516921-32.211013 9.070326-44.811782c-34.113339-19.151799-12.343699-31.885389-11.962376-50.822963 0.389891-19.738778-9.888669-35.124485-9.88867-35.124485l34.10477 9.297406s7.069456 17.266611 2.703531 34.781724c-4.357356 17.506544-8.740418 22.12954 6.319666 31.971079 15.060084 9.850109 15.929841 15.582795 15.62564 26.255532-0.299916 10.668452-4.798661 29.91451-4.798661 29.91451l-41.174226-1.456736zM401.58795 332.500084s26.615431-18.269188 3.744669-30.068753c-34.764586-17.930711-16.169774-35.857138-16.456837-54.803281-0.299916-19.734494-7.617874-36.208469-7.617874-36.208468l35.313004-14.224603s0.616971 25.724251-4.614427 42.995147c-5.569874 18.406293 0.449874 37.905138 15.85272 47.206828 15.398561 9.305975 20.111531 10.99836 20.188653 21.679665 0.072837 10.672736-12.703598 23.423464-12.703599 23.423465H401.58795z" fill="#D8EAFF" fill-opacity=".7" p-id="18100"></path><path d="M379.745473 208.480402a2.116552 2.116552 0 0 1 1.173958-2.754946l32.626611-13.389121a2.116552 2.116552 0 0 1 1.568134 3.928903l-32.626611 13.393406a2.112268 2.112268 0 0 1-2.742092-1.178242z m54.764719 37.532385a2.120837 2.120837 0 0 1 0.522712-2.943465l14.07036-9.344535 15.809874 6.598159a2.116552 2.116552 0 0 1-1.932318 3.753238L449.424603 238.647699l-11.9838 7.892083a2.09513 2.09513 0 0 1-2.930611-0.526995z" fill="#474747" p-id="18101"></path><path d="M418.194745 350.657874l29.730276 240.905641h-8.954644L385.285356 354.672469z" fill="#B0D4FF" p-id="18102"></path><path d="M661.585406 350.657874l-29.730276 240.905641h8.958929l53.676451-236.886762z" fill="#D8EAFF" p-id="18103"></path><path d="M656.69677 390.285389l12.510795 4.580151-32.759431 196.762242 4.370209-0.059983 49.357657-217.854929h-31.435515z" fill="#B0D4FF" p-id="18104"></path><path d="M256.908318 350.657874l-29.725992 240.905641h8.958929L289.817707 354.672469z" fill="#D8EAFF" p-id="18105"></path><path d="M252.023967 390.285389l12.502225 4.580151-32.750861 196.762242 4.365924-0.059983 49.361942-217.854929h-31.4398zM609.682745 331.33041h212.670661c3.727531 0 6.872368-2.772084 7.352234-6.469623l18.719063-143.959833a7.43364 7.43364 0 0 0-7.352234-8.401941h-212.670661c-3.727531 0-6.872368 2.767799-7.356519 6.478192l-18.719063 143.951264a7.43364 7.43364 0 0 0 7.356519 8.401941" fill="#B0D4FF" p-id="18106"></path><path d="M616.00241 331.33041h212.670661c3.727531 0 6.876653-2.772084 7.360803-6.469623l18.714779-143.959833a7.43364 7.43364 0 0 0-7.356519-8.401941h-212.670661c-3.727531 0-6.868084 2.767799-7.352235 6.478192l-18.723347 143.951264a7.43364 7.43364 0 0 0 7.356519 8.401941" fill="#D8EAFF" p-id="18107"></path><path d="M523.21687 342.967163h295.143364a3.127699 3.127699 0 0 0 3.127699-3.136268v-6.418209a3.136268 3.136268 0 0 0-3.127699-3.136268h-295.143364a3.127699 3.127699 0 0 0-3.127698 3.136268v6.418209a3.136268 3.136268 0 0 0 3.127698 3.136268" fill="#9DCAFF" p-id="18108"></path><path d="M522.218577 342.967163h92.524185a2.13369 2.13369 0 0 0 2.129405-2.137975v-8.419079a2.13369 2.13369 0 0 0-2.129405-2.133691h-92.524185a2.129406 2.129406 0 0 0-2.129405 2.137975v8.414795c0 1.182527 0.951163 2.137975 2.129405 2.137975" fill="#8EC2FF" p-id="18109"></path><path d="M588.225874 338.742628h11.259716a0.689808 0.689808 0 0 0 0.694092-0.702661v-2.326494a0.694092 0.694092 0 0 0-0.694092-0.689808h-11.255431a0.694092 0.694092 0 0 0-0.698377 0.685523v2.330779c0 0.385607 0.31277 0.698377 0.698377 0.698376" fill="#67ADFF" p-id="18110"></path><path d="M860.361372 373.71287h-194.735665a4.862929 4.862929 0 0 1-4.85436-4.875782v-21.979582c0-2.690678 2.176536-4.871498 4.85436-4.871498h194.735665c2.677824 0 4.85436 2.18082 4.85436 4.875783v21.979581c0 2.690678-2.176536 4.871498-4.85436 4.871498" fill="#B0D4FF" p-id="18111"></path><path d="M222.60646 373.71287a8.68472 8.68472 0 0 1-8.663297-8.697573V350.687866c0-4.80723 3.87749-8.697573 8.663297-8.697573h633.937406c4.790092 0 8.671866 3.890343 8.671866 8.697573v14.331716c0 4.798661-3.881774 8.697573-8.667581 8.697573H222.610745z" fill="#D8EAFF" p-id="18112"></path><path d="M760.403548 489.022126l0.685523 2.142259c7.562176-0.317054 13.363414 2.600703 11.808134 10.509925a321.030427 321.030427 0 0 0-1.970879 11.289707c1.293925 0.771213 2.292218 2.013724 2.223666 2.622125-0.059983 0.552703-1.542427 0.771213-2.763515 0.865473l-0.402745 2.742092c-0.599833 4.155983-1.148251 8.303397-1.606694 12.10805 1.739515 0.441305 3.60328 0.08569 4.777238-2.515012 0.124251-0.291347 0.235649-0.574126 0.342762-0.848335-0.779782-0.994008-2.039431-2.767799-0.634109-2.240803 0.415598 0.154243 0.822628 0.334192 1.212519 0.548418 1.212519-4.18169 0.604117-6.221121 5.69841-2.879197a3.329071 3.329071 0 0 1 1.700954-1.692384c1.122544-0.49272 0.454159 1.07113-0.415599 2.643548 2.604987 2.150828 2.784937 5.561305 1.285356 8.894661 0.458444 0.347046 0.856904 0.762644 0.964017 1.19538 0.278494 1.143967-1.298209 2.356485-1.298209 2.356486s-1.182527 0.385607-1.96231 0.012853c-2.617841 3.101992-6.576736 5.587013-11.075481 6.019749a9.764418 9.764418 0 0 1-1.790929 0.021423c-0.128536 1.713808-0.197088 3.097707-0.197088 4.036017 0 6.024033-17.746477 15.064368-26.624 6.024033l-0.077121-0.308485a203.90882 203.90882 0 0 1-3.47903-17.120937c-4.083146-0.582695-8.697573-2.973456-12.737874-6.735264-0.71123 0.145674-1.816636 0.278494-2.22795-0.141389-0.424167-0.424167 0-0.934025 0.852619-1.229657-3.324787-3.813222-5.522745-11.353975-4.280234-17.412285-1.058276-0.252787-2.120837-0.771213-1.958025-1.876619 0.192803-1.298209 1.619548-0.998293 2.690678-0.574125 1.182527-2.883481 3.38477-5.154276 6.958058-6.049741 2.240803-0.565556 3.83036-0.471297 4.957189 0.072837 0.239933-0.839766 0.762644-1.970879 1.255364-1.940887 0.411314 0.025707 0.072837 1.499582-0.269925 2.669255 2.784937 2.904904 0.569841 10.484218 0.034276 15.205757 0.535565-0.257071 0.972586-0.222795 0.951163 0.878327-0.008569 0.994008-0.462728 1.508151-0.998293 1.786644 0.31277 2.069423 1.623833 2.622126 3.277657 2.519297-0.681238-10.334259 0.171381-20.222929 5.055733-23.954745 0.3599-0.274209 0.728368-0.539849 1.101121-0.79692l-0.038561-0.385607s-2.103699-6.349657 0-4.233104c0.942594 0.934025 1.645255 2.073707 2.069423 3.324786a40.981423 40.981423 0 0 1 14.991531-5.184268c0.514142-2.335063 1.91518-2.369339 1.91518-2.369338z" fill="#B0D4FF" p-id="18113"></path><path d="M749.859347 501.71287a29.833105 29.833105 0 0 1 4.785808-9.605891 41.332753 41.332753 0 0 0-11.148318 4.468753 8.5519 8.5519 0 0 0-2.069423-3.324786c-2.103699-2.116552 0 4.233105 0 4.233104l0.038561 0.385607c-0.372753 0.257071-0.741222 0.522711-1.101121 0.79692-11.825272 9.031766 0 54.207732 0 54.207733 0.668385 0.685523 1.396753 1.229657 2.150828 1.713807h7.343665l-3.187682-22.369473c-0.231364-1.580987-1.028285-15.702762 3.187682-30.510058" fill="#B0D4FF" p-id="18114"></path><path d="M775.703565 592.76318H728.239665l-9.991498-44.520435h67.446896z" fill="#B0D4FF" p-id="18115"></path><path d="M73.783699 594.742628h821.993506" fill="#7E9EED" p-id="18116"></path><path d="M895.777205 597.913172H73.783699a3.166259 3.166259 0 0 1-3.161975-3.174829c0-1.748084 1.413891-3.170544 3.161975-3.170544h821.993506a3.170544 3.170544 0 0 1 0 6.341088" fill="#C8C8CC" p-id="18117"></path><path d="M317.791331 327.538611a8.243414 8.243414 0 0 1 3.393338-7.892084c12.168033-8.41051 49.983197-31.062762 90.87036-19.995849 22.562276 6.109724 32.883682 15.0001 37.429557 22.896468 4.558728 7.934929-1.748084 17.536536-11.366829 17.480837L330.644887 339.333891c-6.469623-0.042845-11.936669-5.055732-12.853556-11.79528" fill="#FFFFFF" p-id="18118"></path><path d="M319.35518 316.998695a11.456803 11.456803 0 0 0-4.755816 10.976937c1.126828 8.299113 7.917791 14.528803 16.0241 14.580217l107.477155 0.689808c12.039498 0.077121 20.017272-12.146611 14.173189-22.305205-5.955481-10.351397-18.61195-18.774762-39.374729-24.39605-33.616335-9.104603-66.624268 1.842343-93.543899 20.454293z m91.855799-14.237457c19.246059 5.20569 30.462929 12.682176 35.475816 21.396888 3.269088 5.672703-1.306778 12.690745-8.547615 12.643615l-107.47287-0.685523c-4.841506-0.029992-8.984636-3.83036-9.683013-9.010344-0.261356-1.902326 0.548418-3.774661 2.039431-4.80723 24.987314-17.283749 55.557356-27.60087 86.268787-20.03441l1.919464 0.497004z" fill="#C8C8CC" p-id="18119"></path></svg>