<?xml version="1.0" standalone="no"?><!DOCTYPE svg PUBLIC "-//W3C//DTD SVG 1.1//EN" "http://www.w3.org/Graphics/SVG/1.1/DTD/svg11.dtd"><svg t="1716917513897" class="icon" viewBox="0 0 1024 1024" version="1.1" xmlns="http://www.w3.org/2000/svg" p-id="19107" xmlns:xlink="http://www.w3.org/1999/xlink" width="128" height="128"><path d="M930.065 837.208c16.516 0 29.904 13.385 29.904 29.896 0 16.275-13.009 29.513-29.198 29.888l-0.706 0.008H95.904C79.388 897 66 883.615 66 867.104c0-16.275 13.009-29.513 29.198-29.888l0.706-0.008h834.161zM704.438 297.285c11.34-12.005 30.265-12.547 42.273-1.21l203.042 191.689 0.57 0.55c11.945 11.879 11.73 31.367-0.623 42.972l-203.042 190.75-0.579 0.53c-12.056 10.756-30.56 9.998-41.691-1.843l-0.53-0.578c-10.758-12.053-10-30.554 1.844-41.681l179.91-169.02-179.963-169.897-0.563-0.546c-11.459-11.39-11.807-29.902-0.648-41.716zM647.97 600.338c16.516 0 29.904 13.385 29.904 29.896 0 16.276-13.009 29.513-29.198 29.888l-0.706 0.009H95.904C79.388 660.13 66 646.746 66 630.234c0-16.275 13.009-29.513 29.198-29.888l0.706-0.008H647.97z m0-239.169c16.516 0 29.904 13.385 29.904 29.896 0 16.276-13.009 29.513-29.198 29.888l-0.706 0.008H95.904C79.388 420.961 66 407.576 66 391.065c0-16.275 13.009-29.513 29.198-29.888l0.706-0.008H647.97zM930.096 122C946.612 122 960 135.385 960 151.896c0 16.275-13.009 29.513-29.198 29.888l-0.706 0.008H95.935c-16.516 0-29.904-13.385-29.904-29.896 0-16.275 13.009-29.513 29.198-29.888l0.706-0.008h834.161z" fill="#38b0f0" p-id="19108"></path></svg>