<?xml version="1.0" standalone="no"?><!DOCTYPE svg PUBLIC "-//W3C//DTD SVG 1.1//EN" "http://www.w3.org/Graphics/SVG/1.1/DTD/svg11.dtd"><svg t="1717182588745" class="icon" viewBox="0 0 1024 1024" version="1.1" xmlns="http://www.w3.org/2000/svg" p-id="7183" xmlns:xlink="http://www.w3.org/1999/xlink" width="128" height="128"><path d="M768.43 749.42c-108.96-86.85-138.96-44.21-187.91 4.73-34.74 34.74-121.59-37.91-195.8-112.12-75.78-75.78-146.86-162.63-112.12-195.8 48.91-48.98 91.55-78.98 4.7-187.94-86.85-108.95-145.26-25.27-192.64 22.11-55.28 55.28-3.17 260.55 198.97 462.69s407.41 254.25 462.69 198.97c47.35-47.37 131.07-105.78 22.11-192.64z m0 0" fill="#A8D2FA" p-id="7184"></path><path d="M701.47 61.28c-142.78 0-258.53 93.69-258.53 209.27 0 92.27 73.87 170.44 176.27 198.27-0.03 26.13-6.01 56.62-28.83 78.7 0 0 62.88-17.05 114.34-67.83C845.99 478.26 960 385.24 960 270.55c0-115.58-115.75-209.27-258.53-209.27z m54.64 295.86H602.38c-14.66 0-26.66-12-26.66-26.66s12-26.66 26.66-26.66h153.73c14.66 0 26.66 12 26.66 26.66 0 14.67-12 26.66-26.66 26.66z m45.85-112.05H600.98c-14.66 0-26.66-12-26.66-26.66s12-26.66 26.66-26.66h200.99c14.66 0 26.66 12 26.66 26.66-0.01 14.66-12.01 26.66-26.67 26.66z" fill="#669DF8" p-id="7185"></path></svg>